<svg xmlns="http://www.w3.org/2000/svg" xmlns:xlink="http://www.w3.org/1999/xlink" viewBox="0 0 785 340">
  <defs>
    <style>
      .cls-1 {
        clip-path: url(#clip-Artboard_1);
      }

      .cls-2 {
        fill: #fff;
      }

      .cls-3 {
        fill: #ff872f;
      }
    </style>
    <clipPath id="clip-Artboard_1">
      <rect width="785" height="340"/>
    </clipPath>
  </defs>
  <g id="Artboard_1" data-name="Artboard – 1" class="cls-1">
    <rect class="cls-3" width="785" height="340"/>
    <g id="Group_2" data-name="Group 2" transform="translate(278 29.49)">
      <g id="Group_1" data-name="Group 1" transform="translate(0 0.099)">
        <path id="Path_1" data-name="Path 1" class="cls-2" d="M227.221,58.9l-6.949-6.564L171.689,6.445h0l-3.938-3.719A9.843,9.843,0,0,0,160.977.1H12.565C6.543.045,0,4.475,0,14.157V270.418c0,4.048,4.285,7.986,9.381,9.244.29.055.521.164.753.219a12.189,12.189,0,0,0,2.432.219H217.435a18.261,18.261,0,0,0,2.432-.219c.29-.055.521-.164.753-.219,5.1-1.258,9.381-5.2,9.381-9.244V67.542C230,63.823,229.537,61.088,227.221,58.9ZM168.678,17.275l43.139,40.75H168.678ZM12.565,270.418a2.861,2.861,0,0,1-.984-.219,2.184,2.184,0,0,1-1.332-2.024V198H219.809v70.178a2.344,2.344,0,0,1-1.332,2.024,3.193,3.193,0,0,1-.984.219H12.565ZM10.249,188.37V14.157c0-1.039.174-4.485,2.374-4.485H158.776a6.978,6.978,0,0,0-.29,1.914V67.652H217.84a8.6,8.6,0,0,0,2.027-.273V188.37Z" transform="translate(0 -0.099)"/>
        <path id="Path_2" data-name="Path 2" class="cls-2" d="M68.595,410.275H46.367V387.7H37.8v51.517h8.567V416.006H68.595v23.212h8.393V387.7H68.595Z" transform="translate(-15.92 -179.651)"/>
        <path id="Path_3" data-name="Path 3" class="cls-2" d="M123,393.431h15.4v45.787h8.451V393.431h15.339V387.7H123Z" transform="translate(-51.771 -179.651)"/>
        <path id="Path_4" data-name="Path 4" class="cls-2" d="M231.848,422.952,216.509,387.7H208v51.517h8.509V403.792l11.635,28.653H235.5l11.577-28.653v35.425h8.509V387.7h-8.509Z" transform="translate(-87.546 -179.651)"/>
        <path id="Path_5" data-name="Path 5" class="cls-2" d="M321.009,387.7H312.5v51.517h32.242V432.85H321.009Z" transform="translate(-131.528 -179.651)"/>
        <path id="Path_6" data-name="Path 6" class="cls-2" d="M127.609,151.594a5.067,5.067,0,0,0-7.236,0L89.694,182.273a5.067,5.067,0,0,0,0,7.236l30.679,30.679a5.141,5.141,0,0,0,3.589,1.505,5.123,5.123,0,0,0,3.589-8.741L100.519,185.92l27.032-27.032A5.086,5.086,0,0,0,127.609,151.594Z" transform="translate(-37.113 -69.564)"/>
        <path id="Path_7" data-name="Path 7" class="cls-2" d="M255.83,151.594a5.116,5.116,0,0,0-7.236,7.236l27.032,27.032-27.032,27.032a5.067,5.067,0,0,0,0,7.236,5.141,5.141,0,0,0,3.589,1.505,5.041,5.041,0,0,0,3.589-1.505l30.679-30.679a5.067,5.067,0,0,0,0-7.236Z" transform="translate(-103.994 -69.563)"/>
      </g>
    </g>
  </g>
</svg>
