<svg xmlns="http://www.w3.org/2000/svg" viewBox="0 0 785 340"><defs><style>.cls-2{fill:#fff}</style><clipPath id="clip-Artboard_2"><path d="M0 0h785v340H0z"/></clipPath></defs><g id="Artboard_2" data-name="Artboard – 2" clip-path="url(#clip-Artboard_2)"><path fill="#45a9ff" d="M0 0h785v340H0z"/><g id="Group_4" data-name="Group 4" transform="translate(277.279 29.836)"><path id="Path_13" data-name="Path 13" class="cls-2" d="M227.89 59.025l-6.971-6.582L172.192 6.4l-3.963-3.751A9.92 9.92 0 0 0 161.434 0H12.633C6.547 0 0 4.423 0 14.155v257.013c0 4.069 4.317 8 9.413 9.236a5 5 0 0 0 .779.212 14.284 14.284 0 0 0 2.442.248h205.454a11.44 11.44 0 0 0 2.442-.248 5.007 5.007 0 0 0 .779-.212c5.1-1.239 9.413-5.2 9.413-9.236V67.695c-.001-3.716-.496-6.476-2.832-8.67zm-58.706-41.756L212.426 58.1h-43.242zM12.633 271.168a2.573 2.573 0 0 1-1.026-.248 2.217 2.217 0 0 1-1.345-2.017v-70.348h210.2v70.384a2.256 2.256 0 0 1-1.345 2.017 3.12 3.12 0 0 1-1.026.248H12.633zm-2.371-82.309V14.155c0-1.062.177-4.494 2.371-4.494H159.24a6.742 6.742 0 0 0-.283 1.911v55.167a15.706 15.706 0 0 0-10.262-3.786 4.856 4.856 0 1 0 0 9.7 4.99 4.99 0 0 1 5.131 4.848v19.352A18.975 18.975 0 0 0 160.9 111.4a18.755 18.755 0 0 0-7.077 14.544V145.3a5.013 5.013 0 0 1-5.131 4.848 4.856 4.856 0 1 0 0 9.7c8.493 0 15.393-6.511 15.393-14.544v-19.363c0-5.343 4.6-9.7 10.262-9.7a4.856 4.856 0 1 0 0-9.7c-5.662 0-10.262-4.353-10.262-9.7V77.5a14.073 14.073 0 0 0-4-9.7h58.388a7.711 7.711 0 0 0 2.017-.283v121.342z"/><path id="Path_14" data-name="Path 14" class="cls-2" d="M173.1 609.581a10.734 10.734 0 0 1 4.211-3.149 12.974 12.974 0 0 1 4.954-.92 12.029 12.029 0 0 1 4.459.849 10.361 10.361 0 0 1 3.893 2.8l5.8-4.883a19.3 19.3 0 0 0-6.511-3.963 22.88 22.88 0 0 0-7.855-1.315 21.749 21.749 0 0 0-8.493 1.628 19.471 19.471 0 0 0-6.83 4.742 21.9 21.9 0 0 0-4.565 7.785 32.534 32.534 0 0 0-1.663 10.828 32.9 32.9 0 0 0 1.663 10.864 21.748 21.748 0 0 0 4.565 7.82 19.1 19.1 0 0 0 6.794 4.706 22.313 22.313 0 0 0 8.528 1.592 22.881 22.881 0 0 0 7.856-1.309 18.966 18.966 0 0 0 6.511-3.963l-5.8-4.848a11.377 11.377 0 0 1-4.034 2.8 13.114 13.114 0 0 1-4.742.849 11.752 11.752 0 0 1-4.813-1.026 10.991 10.991 0 0 1-4.069-3.256 16.063 16.063 0 0 1-2.8-5.733 33.635 33.635 0 0 1-1.1-8.457 31.077 31.077 0 0 1 1.132-8.6 15.048 15.048 0 0 1 2.909-5.841z" transform="translate(-103.704 -387.034)"/><path id="Path_15" data-name="Path 15" class="cls-2" d="M318.311 624.555a28.557 28.557 0 0 0-5.237-2.831c-1.875-.779-3.609-1.557-5.2-2.371a16.448 16.448 0 0 1-4-2.831 5.88 5.88 0 0 1-1.592-4.282 4.954 4.954 0 0 1 .566-2.229 7.312 7.312 0 0 1 1.557-2.088 9.709 9.709 0 0 1 2.229-1.557 7.1 7.1 0 0 1 2.654-.743 27.982 27.982 0 0 1 4.14-.071 10.639 10.639 0 0 1 2.583.46 5.666 5.666 0 0 1 1.522.672q.531.318.955.531c.035-.035.177-.283.425-.672s.531-.885.849-1.486.672-1.239 1.062-1.911.708-1.309.991-1.875a14.119 14.119 0 0 0-5.343-1.8 37.376 37.376 0 0 0-6.511-.566 19.581 19.581 0 0 0-5.98.92 16.136 16.136 0 0 0-4.99 2.689 13.019 13.019 0 0 0-3.4 4.282 12.582 12.582 0 0 0-1.274 5.768 10.488 10.488 0 0 0 1.592 5.945 16.145 16.145 0 0 0 4.069 4.14 30.984 30.984 0 0 0 5.273 3.043c1.875.849 3.609 1.734 5.237 2.583a17.042 17.042 0 0 1 4.034 2.866 5.235 5.235 0 0 1 1.592 3.857 6.79 6.79 0 0 1-2.265 5.591 10.16 10.16 0 0 1-6.547 1.875 18.319 18.319 0 0 1-3.008-.283 26.226 26.226 0 0 1-3.22-.708c-1.062-.318-2.123-.6-3.114-.92a14.175 14.175 0 0 1-2.477-1.026l-1.486 5.7a10.553 10.553 0 0 0 2.831 1.7 22.006 22.006 0 0 0 3.468 1.1 25.486 25.486 0 0 0 3.609.566c1.2.106 2.336.177 3.468.177a20.491 20.491 0 0 0 7.007-1.132 16.214 16.214 0 0 0 5.2-3.008 13.772 13.772 0 0 0 3.256-4.353 11.939 11.939 0 0 0 1.168-5.131 11.481 11.481 0 0 0-1.592-6.37 15.035 15.035 0 0 0-4.101-4.221z" transform="translate(-189.963 -386.969)"/><path id="Path_16" data-name="Path 16" class="cls-2" d="M425.611 624.555a28.557 28.557 0 0 0-5.237-2.831c-1.875-.779-3.609-1.557-5.2-2.371a16.448 16.448 0 0 1-4-2.831 5.88 5.88 0 0 1-1.592-4.282 4.954 4.954 0 0 1 .566-2.229 7.314 7.314 0 0 1 1.557-2.088 9.709 9.709 0 0 1 2.229-1.557 7.1 7.1 0 0 1 2.654-.743 27.982 27.982 0 0 1 4.14-.071 10.64 10.64 0 0 1 2.583.46 5.666 5.666 0 0 1 1.522.672q.531.318.955.531c.035-.035.177-.283.425-.672s.531-.885.849-1.486.672-1.239 1.062-1.911.708-1.309.991-1.875a14.119 14.119 0 0 0-5.343-1.8 37.376 37.376 0 0 0-6.511-.566 19.582 19.582 0 0 0-5.98.92 16.135 16.135 0 0 0-4.99 2.689 12.652 12.652 0 0 0-4.671 10.05 10.488 10.488 0 0 0 1.592 5.945 16.145 16.145 0 0 0 4.069 4.14 30.984 30.984 0 0 0 5.273 3.043c1.875.849 3.609 1.734 5.237 2.583a17.041 17.041 0 0 1 4.034 2.866 5.235 5.235 0 0 1 1.592 3.857 6.79 6.79 0 0 1-2.265 5.591 10.16 10.16 0 0 1-6.547 1.875 18.319 18.319 0 0 1-3.008-.283 26.226 26.226 0 0 1-3.22-.708 63.209 63.209 0 0 1-3.114-.92 14.174 14.174 0 0 1-2.477-1.026l-1.486 5.7a10.553 10.553 0 0 0 2.831 1.7 22.008 22.008 0 0 0 3.468 1.1 25.487 25.487 0 0 0 3.609.566c1.2.106 2.336.177 3.468.177a20.491 20.491 0 0 0 7.007-1.132 16.214 16.214 0 0 0 5.2-3.008 13.772 13.772 0 0 0 3.256-4.353 11.94 11.94 0 0 0 1.168-5.131 11.481 11.481 0 0 0-1.592-6.37 14.569 14.569 0 0 0-4.104-4.221z" transform="translate(-259.293 -386.969)"/><path id="Path_17" data-name="Path 17" class="cls-2" d="M155.955 211.8v-19.356a5.013 5.013 0 0 1 5.131-4.848 4.856 4.856 0 1 0 0-9.7c-8.493 0-15.393 6.511-15.393 14.544v19.36c0 5.343-4.6 9.7-10.262 9.7a4.856 4.856 0 1 0 0 9.7c5.662 0 10.262 4.353 10.262 9.7v19.357c0 8 6.9 14.544 15.393 14.544a4.856 4.856 0 1 0 0-9.7 4.99 4.99 0 0 1-5.131-4.848v-19.365a18.975 18.975 0 0 0-7.077-14.544 18.863 18.863 0 0 0 7.077-14.544z" transform="translate(-84.191 -114.947)"/></g></g></svg>