<svg xmlns="http://www.w3.org/2000/svg" viewBox="0 0 785 340"><defs><style>.cls-2{fill:#fff}</style><clipPath id="clip-Artboard_3"><path d="M0 0h785v340H0z"/></clipPath></defs><g id="Artboard_3" data-name="Artboard – 3" clip-path="url(#clip-Artboard_3)"><path fill="#d6c63a" d="M0 0h785v340H0z"/><g id="Group_5" data-name="Group 5" transform="translate(-316 -95.266)"><g id="Group_3" data-name="Group 3" transform="translate(594 125)"><path id="Path_8" data-name="Path 8" class="cls-2" d="M226.43 59l-7.14-6.77-48.447-45.943-4.08-3.869C165.743.967 163.193 0 160.643 0H12.749C6.63 0 0 4.352 0 14.024v256.788c0 3.869 4.08 8.221 9.18 9.188h211.64c5.1-1.451 9.18-5.32 9.18-9.188V67.7c-.51-3.866-1.02-6.767-3.57-8.7zm-58.137-41.591l42.838 40.622h-42.838zM12.749 270.812h-1.02a2.643 2.643 0 0 1-1.53-2.418v-70.121H219.29v70.121c0 .967-.51 1.451-1.53 1.934H12.749zM10.2 188.6V14.024c0-.967 0-4.352 2.55-4.352H158.6a2.792 2.792 0 0 0-.51 1.934v55.13a14.655 14.655 0 0 0-10.2-3.869c-3.06 0-5.1 1.934-5.1 4.836s2.04 4.836 5.1 4.836 5.1 1.934 5.1 4.836v19.343a17.777 17.777 0 0 0 7.14 14.508 19.314 19.314 0 0 0-7.14 14.508v19.344c0 2.9-2.04 4.836-5.1 4.836s-5.1 1.934-5.1 4.836 2.04 4.836 5.1 4.836c8.67 0 15.3-6.287 15.3-14.508v-19.344a9.976 9.976 0 0 1 10.2-9.672c3.06 0 5.1-1.934 5.1-4.836s-2.04-4.836-5.1-4.836a9.976 9.976 0 0 1-10.2-9.672V77.375a13.147 13.147 0 0 0-4.08-9.672h58.137a3.2 3.2 0 0 0 2.04-.484v120.9H10.2z"/><path id="Path_9" data-name="Path 9" class="cls-2" d="M35.605 79a5.7 5.7 0 0 1-2.316 4.632 9.877 9.877 0 0 1-5.558 1.389 5.875 5.875 0 0 1-2.779-.463c-.926-.463-1.853-.463-2.779-.926s-1.853-.463-2.779-.926-1.389-.463-1.853-.926L14.3 86.873a20.139 20.139 0 0 0 3.242 1.853c1.389.463 2.316.926 3.705 1.389a14.318 14.318 0 0 0 3.705.926c.926 0 2.316.463 3.242.463a22.55 22.55 0 0 0 5.558-.463 13.869 13.869 0 0 0 4.632-1.853 12.485 12.485 0 0 0 3.242-3.705 9.877 9.877 0 0 0 1.389-5.558V43.8h-7.873V79z" transform="translate(59.694 170.895)"/><path id="Path_10" data-name="Path 10" class="cls-2" d="M45.031 68.71c-1.389-.926-3.242-1.853-4.632-2.779s-3.242-1.389-4.632-2.316a25.693 25.693 0 0 1-3.705-2.779 5.661 5.661 0 0 1-1.389-4.168 5.036 5.036 0 0 1 .463-2.316 6.394 6.394 0 0 1 1.39-1.852c.463-.463 1.389-.926 1.853-1.389s1.389-.463 2.316-.926H40.4a3.471 3.471 0 0 1 2.316.463c.463 0 .926.463 1.389.463s.463.463.926.463a.454.454 0 0 1 .463-.463c0-.463.463-.926.926-1.389s.463-1.389.926-1.853.463-1.389.926-1.853a13.87 13.87 0 0 0-4.632-1.853 26.41 26.41 0 0 0-6.021-.463 23.247 23.247 0 0 0-5.558.926 9.61 9.61 0 0 0-4.632 2.779 14.422 14.422 0 0 0-3.242 4.168c-.926 1.853-.926 3.242-.926 5.558a9.877 9.877 0 0 0 1.389 5.558 29.967 29.967 0 0 0 3.705 4.168 24.533 24.533 0 0 0 4.632 2.779 42.842 42.842 0 0 0 4.632 2.316 11.147 11.147 0 0 1 3.705 2.779 5.259 5.259 0 0 1 1.389 3.705c0 2.316-.463 4.168-1.853 5.558s-3.242 1.853-6.021 1.853a5.874 5.874 0 0 1-2.779-.463c-.926 0-1.853-.463-2.779-.463-.926-.463-1.853-.463-2.779-.926s-1.853-.463-2.316-.926L22.8 88.626c.926.463 1.389 1.389 2.779 1.389s1.853.926 3.242.926a7.882 7.882 0 0 0 3.242.463h3.242a27.334 27.334 0 0 0 6.484-.926 40.731 40.731 0 0 0 4.632-2.778 8.331 8.331 0 0 0 2.779-4.169 16.65 16.65 0 0 0 .926-5.095 11.587 11.587 0 0 0-1.389-6.021 14.1 14.1 0 0 0-3.706-3.705z" transform="translate(95.082 170.532)"/><path id="Path_11" data-name="Path 11" class="cls-2" d="M32.158 45.421V26.895a4.376 4.376 0 0 1 4.632-4.632 4.376 4.376 0 0 0 4.632-4.632A4.376 4.376 0 0 0 36.789 13a13.647 13.647 0 0 0-13.894 13.895v18.526a9.29 9.29 0 0 1-9.263 9.263 4.632 4.632 0 0 0 0 9.263 9.29 9.29 0 0 1 9.263 9.263v18.526a13.647 13.647 0 0 0 13.895 13.895 4.632 4.632 0 1 0 0-9.263 4.376 4.376 0 0 1-4.632-4.632V73.21a17.363 17.363 0 0 0-6.484-13.895 17.363 17.363 0 0 0 6.484-13.894z" transform="translate(37.672 51.269)"/><circle id="Ellipse_1" data-name="Ellipse 1" class="cls-2" cx="6.947" cy="6.947" r="6.947" transform="translate(105.229 87.248)"/><path id="Path_12" data-name="Path 12" class="cls-2" d="M25.632 25A4.376 4.376 0 0 0 21 29.632v13.894a4.376 4.376 0 0 0 4.632 4.632 4.376 4.376 0 0 0 4.632-4.632V29.632A4.376 4.376 0 0 0 25.632 25z" transform="translate(86.552 96.381)"/></g></g></g></svg>